<mxfile host="app.diagrams.net" modified="2024-03-12T12:22:39.093Z" agent="Mozilla/5.0 (Windows NT 10.0; Win64; x64) AppleWebKit/537.36 (KHTML, like Gecko) Chrome/120.0.0.0 YaBrowser/24.1.0.0 Safari/537.36" etag="orJTp6-hYUwOj9d6VB15" version="24.0.5" type="device">
  <diagram name="Page-1" id="13e1069c-82ec-6db2-03f1-153e76fe0fe0">
    <mxGraphModel dx="1290" dy="551" grid="1" gridSize="10" guides="1" tooltips="1" connect="1" arrows="1" fold="1" page="1" pageScale="1" pageWidth="1100" pageHeight="850" background="none" math="0" shadow="0">
      <root>
        <mxCell id="0" />
        <mxCell id="1" parent="0" />
        <mxCell id="7baba1c4bc27f4b0-2" value=":authorization&lt;div&gt;form&lt;/div&gt;" style="shape=umlLifeline;perimeter=lifelinePerimeter;whiteSpace=wrap;html=1;container=1;collapsible=0;recursiveResize=0;outlineConnect=0;rounded=1;shadow=0;comic=0;labelBackgroundColor=none;strokeWidth=1;fontFamily=Verdana;fontSize=12;align=center;" parent="1" vertex="1">
          <mxGeometry x="240" y="80" width="100" height="580" as="geometry" />
        </mxCell>
        <mxCell id="7baba1c4bc27f4b0-10" value="" style="html=1;points=[];perimeter=orthogonalPerimeter;rounded=0;shadow=0;comic=0;labelBackgroundColor=none;strokeWidth=1;fontFamily=Verdana;fontSize=12;align=center;" parent="7baba1c4bc27f4b0-2" vertex="1">
          <mxGeometry x="45" y="100" width="10" height="120" as="geometry" />
        </mxCell>
        <mxCell id="ok3Von3_oyRermzQMDBI-14" value="getting access to platform" style="html=1;verticalAlign=bottom;endArrow=open;dashed=1;endSize=8;labelBackgroundColor=none;fontFamily=Verdana;fontSize=12;edgeStyle=elbowEdgeStyle;elbow=vertical;entryX=1.233;entryY=0.274;entryDx=0;entryDy=0;entryPerimeter=0;" edge="1" parent="7baba1c4bc27f4b0-2" target="ok3Von3_oyRermzQMDBI-5">
          <mxGeometry x="0.0007" relative="1" as="geometry">
            <mxPoint x="-85" y="210" as="targetPoint" />
            <Array as="points">
              <mxPoint x="-10" y="210" />
              <mxPoint x="20" y="210" />
            </Array>
            <mxPoint x="45" y="210" as="sourcePoint" />
            <mxPoint as="offset" />
          </mxGeometry>
        </mxCell>
        <mxCell id="7baba1c4bc27f4b0-3" value=":access manager" style="shape=umlLifeline;perimeter=lifelinePerimeter;whiteSpace=wrap;html=1;container=1;collapsible=0;recursiveResize=0;outlineConnect=0;rounded=1;shadow=0;comic=0;labelBackgroundColor=none;strokeWidth=1;fontFamily=Verdana;fontSize=12;align=center;" parent="1" vertex="1">
          <mxGeometry x="400" y="80" width="100" height="580" as="geometry" />
        </mxCell>
        <mxCell id="7baba1c4bc27f4b0-13" value="" style="html=1;points=[];perimeter=orthogonalPerimeter;rounded=0;shadow=0;comic=0;labelBackgroundColor=none;strokeWidth=1;fontFamily=Verdana;fontSize=12;align=center;" parent="7baba1c4bc27f4b0-3" vertex="1">
          <mxGeometry x="45" y="120" width="10" height="80" as="geometry" />
        </mxCell>
        <mxCell id="7baba1c4bc27f4b0-17" value="" style="html=1;verticalAlign=bottom;endArrow=block;labelBackgroundColor=none;fontFamily=Verdana;fontSize=12;edgeStyle=elbowEdgeStyle;elbow=horizontal;entryX=0.8;entryY=0.279;entryDx=0;entryDy=0;entryPerimeter=0;exitX=1.067;exitY=0.029;exitDx=0;exitDy=0;exitPerimeter=0;" parent="7baba1c4bc27f4b0-3" source="7baba1c4bc27f4b0-13" target="7baba1c4bc27f4b0-13" edge="1">
          <mxGeometry relative="1" as="geometry">
            <mxPoint x="75" y="110" as="sourcePoint" />
            <Array as="points">
              <mxPoint x="130" y="140" />
              <mxPoint x="120" y="170" />
            </Array>
            <mxPoint x="70" y="190" as="targetPoint" />
            <mxPoint as="offset" />
          </mxGeometry>
        </mxCell>
        <mxCell id="ok3Von3_oyRermzQMDBI-9" value="checking data&amp;nbsp;&lt;div&gt;(login&amp;amp;password)&amp;nbsp;&lt;/div&gt;" style="edgeLabel;html=1;align=center;verticalAlign=middle;resizable=0;points=[];" vertex="1" connectable="0" parent="7baba1c4bc27f4b0-17">
          <mxGeometry x="-0.1788" y="2" relative="1" as="geometry">
            <mxPoint x="-16" y="40" as="offset" />
          </mxGeometry>
        </mxCell>
        <mxCell id="ok3Von3_oyRermzQMDBI-12" value="getting access message" style="html=1;verticalAlign=bottom;endArrow=open;dashed=1;endSize=8;labelBackgroundColor=none;fontFamily=Verdana;fontSize=12;edgeStyle=elbowEdgeStyle;elbow=vertical;" edge="1" parent="7baba1c4bc27f4b0-3" target="7baba1c4bc27f4b0-10">
          <mxGeometry relative="1" as="geometry">
            <mxPoint x="-85" y="190" as="targetPoint" />
            <Array as="points">
              <mxPoint x="-10" y="190" />
              <mxPoint x="20" y="190" />
            </Array>
            <mxPoint x="45" y="190" as="sourcePoint" />
          </mxGeometry>
        </mxCell>
        <mxCell id="7baba1c4bc27f4b0-23" value="input data for searching" style="html=1;verticalAlign=bottom;endArrow=block;labelBackgroundColor=none;fontFamily=Verdana;fontSize=12;" parent="7baba1c4bc27f4b0-3" target="ok3Von3_oyRermzQMDBI-23" edge="1">
          <mxGeometry relative="1" as="geometry">
            <mxPoint x="-290" y="250.0000000000001" as="sourcePoint" />
            <mxPoint x="180" y="250" as="targetPoint" />
          </mxGeometry>
        </mxCell>
        <mxCell id="7baba1c4bc27f4b0-11" value="input login &amp;amp; password" style="html=1;verticalAlign=bottom;endArrow=block;entryX=0;entryY=0;labelBackgroundColor=none;fontFamily=Verdana;fontSize=12;edgeStyle=elbowEdgeStyle;elbow=vertical;exitX=0.967;exitY=0.021;exitDx=0;exitDy=0;exitPerimeter=0;" parent="1" source="ok3Von3_oyRermzQMDBI-5" target="7baba1c4bc27f4b0-10" edge="1">
          <mxGeometry relative="1" as="geometry">
            <mxPoint x="155" y="180" as="sourcePoint" />
          </mxGeometry>
        </mxCell>
        <mxCell id="7baba1c4bc27f4b0-14" value="data transmission" style="html=1;verticalAlign=bottom;endArrow=block;entryX=0;entryY=0;labelBackgroundColor=none;fontFamily=Verdana;fontSize=12;edgeStyle=elbowEdgeStyle;elbow=vertical;" parent="1" source="7baba1c4bc27f4b0-10" target="7baba1c4bc27f4b0-13" edge="1">
          <mxGeometry relative="1" as="geometry">
            <mxPoint x="370" y="200" as="sourcePoint" />
          </mxGeometry>
        </mxCell>
        <mxCell id="ok3Von3_oyRermzQMDBI-1" value=":&lt;span style=&quot;background-color: initial;&quot;&gt;user&lt;/span&gt;" style="shape=umlActor;verticalLabelPosition=bottom;verticalAlign=top;html=1;outlineConnect=0;" vertex="1" parent="1">
          <mxGeometry x="90" y="60" width="30" height="60" as="geometry" />
        </mxCell>
        <mxCell id="ok3Von3_oyRermzQMDBI-4" value="" style="endArrow=none;dashed=1;html=1;dashPattern=1 3;strokeWidth=2;rounded=0;" edge="1" parent="1">
          <mxGeometry width="50" height="50" relative="1" as="geometry">
            <mxPoint x="104.58000000000001" y="660" as="sourcePoint" />
            <mxPoint x="104.58000000000001" y="140" as="targetPoint" />
          </mxGeometry>
        </mxCell>
        <mxCell id="ok3Von3_oyRermzQMDBI-5" value="" style="rounded=0;whiteSpace=wrap;html=1;" vertex="1" parent="1">
          <mxGeometry x="100" y="170" width="10" height="440" as="geometry" />
        </mxCell>
        <mxCell id="ok3Von3_oyRermzQMDBI-22" value=":search service" style="shape=umlLifeline;perimeter=lifelinePerimeter;whiteSpace=wrap;html=1;container=1;collapsible=0;recursiveResize=0;outlineConnect=0;rounded=1;shadow=0;comic=0;labelBackgroundColor=none;strokeWidth=1;fontFamily=Verdana;fontSize=12;align=center;" vertex="1" parent="1">
          <mxGeometry x="590" y="80" width="100" height="580" as="geometry" />
        </mxCell>
        <mxCell id="ok3Von3_oyRermzQMDBI-23" value="" style="html=1;points=[[0,0,0,0,5],[0,1,0,0,-5],[1,0,0,0,5],[1,1,0,0,-5]];perimeter=orthogonalPerimeter;outlineConnect=0;targetShapes=umlLifeline;portConstraint=eastwest;newEdgeStyle={&quot;curved&quot;:0,&quot;rounded&quot;:0};" vertex="1" parent="ok3Von3_oyRermzQMDBI-22">
          <mxGeometry x="45" y="250" width="10" height="60" as="geometry" />
        </mxCell>
        <mxCell id="ok3Von3_oyRermzQMDBI-49" style="edgeStyle=orthogonalEdgeStyle;rounded=0;orthogonalLoop=1;jettySize=auto;html=1;curved=0;exitX=1;exitY=0;exitDx=0;exitDy=5;exitPerimeter=0;" edge="1" parent="ok3Von3_oyRermzQMDBI-22" source="ok3Von3_oyRermzQMDBI-23" target="ok3Von3_oyRermzQMDBI-23">
          <mxGeometry relative="1" as="geometry" />
        </mxCell>
        <mxCell id="ok3Von3_oyRermzQMDBI-28" value=":car" style="shape=umlLifeline;perimeter=lifelinePerimeter;whiteSpace=wrap;html=1;container=1;collapsible=0;recursiveResize=0;outlineConnect=0;rounded=1;shadow=0;comic=0;labelBackgroundColor=none;strokeWidth=1;fontFamily=Verdana;fontSize=12;align=center;" vertex="1" parent="1">
          <mxGeometry x="740" y="80" width="100" height="580" as="geometry" />
        </mxCell>
        <mxCell id="ok3Von3_oyRermzQMDBI-29" value="" style="html=1;points=[[0,0,0,0,5],[0,1,0,0,-5],[1,0,0,0,5],[1,1,0,0,-5]];perimeter=orthogonalPerimeter;outlineConnect=0;targetShapes=umlLifeline;portConstraint=eastwest;newEdgeStyle={&quot;curved&quot;:0,&quot;rounded&quot;:0};" vertex="1" parent="ok3Von3_oyRermzQMDBI-28">
          <mxGeometry x="45" y="330" width="10" height="90" as="geometry" />
        </mxCell>
        <mxCell id="ok3Von3_oyRermzQMDBI-32" value=":booking service" style="shape=umlLifeline;perimeter=lifelinePerimeter;whiteSpace=wrap;html=1;container=1;collapsible=0;recursiveResize=0;outlineConnect=0;rounded=1;shadow=0;comic=0;labelBackgroundColor=none;strokeWidth=1;fontFamily=Verdana;fontSize=12;align=center;" vertex="1" parent="1">
          <mxGeometry x="910" y="80" width="100" height="580" as="geometry" />
        </mxCell>
        <mxCell id="ok3Von3_oyRermzQMDBI-33" value="" style="html=1;points=[[0,0,0,0,5],[0,1,0,0,-5],[1,0,0,0,5],[1,1,0,0,-5]];perimeter=orthogonalPerimeter;outlineConnect=0;targetShapes=umlLifeline;portConstraint=eastwest;newEdgeStyle={&quot;curved&quot;:0,&quot;rounded&quot;:0};" vertex="1" parent="ok3Von3_oyRermzQMDBI-32">
          <mxGeometry x="45" y="350" width="10" height="200" as="geometry" />
        </mxCell>
        <mxCell id="ok3Von3_oyRermzQMDBI-35" value="" style="html=1;verticalAlign=bottom;endArrow=block;labelBackgroundColor=none;fontFamily=Verdana;fontSize=12;edgeStyle=elbowEdgeStyle;elbow=horizontal;exitX=1;exitY=0;exitDx=0;exitDy=5;exitPerimeter=0;" edge="1" parent="ok3Von3_oyRermzQMDBI-32">
          <mxGeometry relative="1" as="geometry">
            <mxPoint x="55" y="370" as="sourcePoint" />
            <Array as="points">
              <mxPoint x="130" y="415" />
              <mxPoint x="110" y="375" />
              <mxPoint x="177" y="393" />
            </Array>
            <mxPoint x="55" y="415" as="targetPoint" />
            <mxPoint as="offset" />
          </mxGeometry>
        </mxCell>
        <mxCell id="ok3Von3_oyRermzQMDBI-38" value="checking the&amp;nbsp;&lt;div&gt;availability&lt;div&gt;&amp;nbsp;of the car&lt;/div&gt;&lt;/div&gt;" style="edgeLabel;html=1;align=center;verticalAlign=middle;resizable=0;points=[];" vertex="1" connectable="0" parent="ok3Von3_oyRermzQMDBI-35">
          <mxGeometry x="-0.2677" y="4" relative="1" as="geometry">
            <mxPoint x="-26" y="74" as="offset" />
          </mxGeometry>
        </mxCell>
        <mxCell id="ok3Von3_oyRermzQMDBI-34" value="send a booking&lt;div&gt;&amp;nbsp;request&lt;/div&gt;" style="html=1;verticalAlign=bottom;endArrow=block;labelBackgroundColor=none;fontFamily=Verdana;fontSize=12;" edge="1" parent="ok3Von3_oyRermzQMDBI-32">
          <mxGeometry relative="1" as="geometry">
            <mxPoint x="-115.00000000000045" y="350" as="sourcePoint" />
            <mxPoint x="44.999999999999545" y="350" as="targetPoint" />
          </mxGeometry>
        </mxCell>
        <mxCell id="ok3Von3_oyRermzQMDBI-54" value="sending message of availability of the car" style="html=1;verticalAlign=bottom;endArrow=open;dashed=1;endSize=8;labelBackgroundColor=none;fontFamily=Verdana;fontSize=12;edgeStyle=elbowEdgeStyle;elbow=vertical;" edge="1" parent="ok3Von3_oyRermzQMDBI-32">
          <mxGeometry relative="1" as="geometry">
            <mxPoint x="-800" y="440" as="targetPoint" />
            <Array as="points">
              <mxPoint x="-16" y="440" />
              <mxPoint x="14" y="440" />
            </Array>
            <mxPoint x="45" y="440" as="sourcePoint" />
          </mxGeometry>
        </mxCell>
        <mxCell id="ok3Von3_oyRermzQMDBI-55" value="book" style="html=1;verticalAlign=bottom;endArrow=block;labelBackgroundColor=none;fontFamily=Verdana;fontSize=12;exitX=0.835;exitY=0.563;exitDx=0;exitDy=0;exitPerimeter=0;" edge="1" parent="ok3Von3_oyRermzQMDBI-32">
          <mxGeometry y="-27" relative="1" as="geometry">
            <mxPoint x="-800" y="453" as="sourcePoint" />
            <mxPoint x="40" y="453" as="targetPoint" />
            <Array as="points">
              <mxPoint x="-380" y="453" />
            </Array>
            <mxPoint as="offset" />
          </mxGeometry>
        </mxCell>
        <mxCell id="ok3Von3_oyRermzQMDBI-50" value="&lt;span style=&quot;font-size: 11px; text-align: left; background-color: rgb(255, 255, 255);&quot;&gt;validation of&amp;nbsp;&lt;/span&gt;&lt;div&gt;&lt;span style=&quot;font-size: 11px; text-align: left; background-color: rgb(255, 255, 255);&quot;&gt;search criteria&lt;/span&gt;&lt;/div&gt;" style="text;html=1;align=center;verticalAlign=middle;resizable=0;points=[];autosize=1;strokeColor=none;fillColor=none;" vertex="1" parent="1">
          <mxGeometry x="660" y="323" width="90" height="40" as="geometry" />
        </mxCell>
        <mxCell id="ok3Von3_oyRermzQMDBI-51" value="sending the search result" style="html=1;verticalAlign=bottom;endArrow=open;dashed=1;endSize=8;labelBackgroundColor=none;fontFamily=Verdana;fontSize=12;edgeStyle=elbowEdgeStyle;elbow=vertical;entryX=0.92;entryY=0.476;entryDx=0;entryDy=0;entryPerimeter=0;" edge="1" parent="1" source="ok3Von3_oyRermzQMDBI-23" target="ok3Von3_oyRermzQMDBI-5">
          <mxGeometry relative="1" as="geometry">
            <mxPoint x="130" y="380" as="targetPoint" />
            <Array as="points">
              <mxPoint x="600" y="380" />
            </Array>
            <mxPoint x="625" y="380" as="sourcePoint" />
          </mxGeometry>
        </mxCell>
        <mxCell id="ok3Von3_oyRermzQMDBI-53" value="choose car" style="html=1;verticalAlign=bottom;endArrow=block;labelBackgroundColor=none;fontFamily=Verdana;fontSize=12;exitX=0.835;exitY=0.563;exitDx=0;exitDy=0;exitPerimeter=0;entryX=0;entryY=0;entryDx=0;entryDy=5;entryPerimeter=0;" edge="1" parent="1" source="ok3Von3_oyRermzQMDBI-5" target="ok3Von3_oyRermzQMDBI-29">
          <mxGeometry relative="1" as="geometry">
            <mxPoint x="110" y="410" as="sourcePoint" />
            <mxPoint x="500" y="410" as="targetPoint" />
          </mxGeometry>
        </mxCell>
        <mxCell id="ok3Von3_oyRermzQMDBI-46" value="" style="html=1;verticalAlign=bottom;endArrow=block;labelBackgroundColor=none;fontFamily=Verdana;fontSize=12;" edge="1" parent="1" source="ok3Von3_oyRermzQMDBI-33">
          <mxGeometry x="0.9167" y="-80" relative="1" as="geometry">
            <mxPoint x="965" y="560" as="sourcePoint" />
            <mxPoint x="970" y="600" as="targetPoint" />
            <Array as="points">
              <mxPoint x="1000" y="540" />
              <mxPoint x="1040" y="560" />
              <mxPoint x="1040" y="590" />
            </Array>
            <mxPoint as="offset" />
          </mxGeometry>
        </mxCell>
        <mxCell id="ok3Von3_oyRermzQMDBI-47" value="booking" style="edgeLabel;html=1;align=center;verticalAlign=middle;resizable=0;points=[];" vertex="1" connectable="0" parent="ok3Von3_oyRermzQMDBI-46">
          <mxGeometry x="-0.0344" relative="1" as="geometry">
            <mxPoint as="offset" />
          </mxGeometry>
        </mxCell>
        <mxCell id="ok3Von3_oyRermzQMDBI-48" value="successful booking" style="html=1;verticalAlign=bottom;endArrow=open;dashed=1;endSize=8;labelBackgroundColor=none;fontFamily=Verdana;fontSize=12;edgeStyle=elbowEdgeStyle;elbow=vertical;" edge="1" parent="1">
          <mxGeometry x="0.5" y="30" relative="1" as="geometry">
            <mxPoint x="110" y="610" as="targetPoint" />
            <Array as="points">
              <mxPoint x="900" y="610" />
              <mxPoint x="930" y="610" />
            </Array>
            <mxPoint x="955" y="610" as="sourcePoint" />
            <mxPoint as="offset" />
          </mxGeometry>
        </mxCell>
      </root>
    </mxGraphModel>
  </diagram>
</mxfile>
